<svg width="30" height="30" viewBox="0 0 30 30" fill="none" xmlns="http://www.w3.org/2000/svg">
<path d="M23.8264 9.81748C23.6523 9.64325 23.4455 9.50503 23.218 9.41072C22.9904 9.31642 22.7465 9.26788 22.5002 9.26788C22.2538 9.26788 22.0099 9.31642 21.7823 9.41072C21.5548 9.50503 21.348 9.64325 21.1739 9.81748L15.4414 15.5487C15.3242 15.6659 15.1653 15.7317 14.9995 15.7317C14.8338 15.7317 14.6749 15.6659 14.5577 15.5487L8.82641 9.81748C8.47483 9.46574 7.99792 9.26807 7.5006 9.26795C7.00328 9.26783 6.52628 9.46528 6.17453 9.81686C5.82279 10.1684 5.62512 10.6453 5.625 11.1427C5.62488 11.64 5.82233 12.117 6.17391 12.4687L11.9064 18.2012C12.3127 18.6075 12.795 18.9298 13.3258 19.1497C13.8566 19.3696 14.4256 19.4828 15.0002 19.4828C15.5747 19.4828 16.1437 19.3696 16.6745 19.1497C17.2053 18.9298 17.6876 18.6075 18.0939 18.2012L23.8264 12.4687C24.1779 12.1171 24.3754 11.6403 24.3754 11.1431C24.3754 10.6459 24.1779 10.1691 23.8264 9.81748Z" fill="#262525"/>
</svg>
